<svg xmlns="http://www.w3.org/2000/svg" version="1.1" xmlns:xlink="http://www.w3.org/1999/xlink" xmlns:svgjs="http://svgjs.dev/svgjs" width="1500" height="325" viewBox="0 0 1500 325"><g transform="matrix(1,0,0,1,-0.9090909090909918,20.63358240781352)"><svg viewBox="0 0 396 86" data-background-color="#ffffff" preserveAspectRatio="xMidYMid meet" height="325" width="1500" xmlns="http://www.w3.org/2000/svg" xmlns:xlink="http://www.w3.org/1999/xlink"><g id="tight-bounds" transform="matrix(1,0,0,1,0.2400000000000091,0.29927373811190705)"><svg viewBox="0 0 395.52 85.57157058216654" height="85.57157058216654" width="395.52"><g><svg viewBox="0 0 395.52 85.57157058216654" height="85.57157058216654" width="395.52"><g><svg viewBox="0 0 666.5732509195677 144.2145024" height="85.57157058216654" width="395.52"><g transform="matrix(1,0,0,1,271.0532509195678,15.723097538535413)"><svg viewBox="0 0 395.52 112.76830732292916" height="112.76830732292916" width="395.52"><g id="textblocktransform"><svg viewBox="0 0 395.52 112.76830732292916" height="112.76830732292916" width="395.52" id="textblock"><g><svg viewBox="0 0 395.52 112.76830732292916" height="112.76830732292916" width="395.52"><g transform="matrix(1,0,0,1,0,0)"><svg width="395.52" viewBox="1.98 -34.79 122.00999999999999 34.79" height="112.76830732292916" data-palette-color="#078dee"><path d="M7.84 0L7.84 0 2.22 0Q1.98 0 1.98-0.24L1.98-0.24 2.08-34.59Q2.08-34.79 2.27-34.79L2.27-34.79 11.89-34.79Q16.48-34.79 19.15-31.99 21.83-29.2 21.83-24.39L21.83-24.39Q21.83-20.87 20.43-18.26L20.43-18.26Q19.02-15.67 16.77-14.26 14.53-12.84 11.89-12.84L11.89-12.84 8.08-12.84 8.08-0.24Q8.08 0 7.84 0ZM11.89-28.86L11.89-28.86 8.08-28.81 8.08-18.9 11.89-18.9Q13.48-18.9 14.65-20.42 15.82-21.95 15.82-24.39L15.82-24.39Q15.82-26.34 14.77-27.6 13.72-28.86 11.89-28.86ZM41.57 0L41.57 0 25.41 0Q25.22 0 25.22-0.24L25.22-0.24 25.27-34.55Q25.27-34.79 25.51-34.79L25.51-34.79 31.08-34.79Q31.32-34.79 31.32-34.55L31.32-34.55 31.27-6.15 41.57-6.15Q41.82-6.15 41.82-5.91L41.82-5.91 41.82-0.24Q41.82 0 41.57 0ZM43.38-0.24L43.38-0.24 49.58-34.59Q49.63-34.79 49.82-34.79L49.82-34.79 57.08-34.79Q57.27-34.79 57.32-34.59L57.32-34.59 63.28-0.24Q63.3 0 63.08 0L63.08 0 57.54 0Q57.29 0 57.27-0.24L57.27-0.24 56.73-3.91 49.92-3.91 49.38-0.24Q49.36 0 49.14 0L49.14 0 43.57 0Q43.38 0 43.38-0.24ZM55.73-9.25L53.68-23.29 53.39-25.15 53.17-23.29 50.92-9.25 55.73-9.25ZM75.82 0L75.82 0 70.09 0Q69.91 0 69.91-0.2L69.91-0.2 69.96-14.4 63.27-34.59Q63.22-34.79 63.42-34.79L63.42-34.79 68.99-34.79Q69.23-34.79 69.28-34.59L69.28-34.59 72.97-21.14 76.73-34.59Q76.77-34.79 76.97-34.79L76.97-34.79 82.59-34.79Q82.78-34.79 82.73-34.59L82.73-34.59 75.97-14.6 76.02-0.2Q76.02 0 75.82 0ZM101.8 0L101.8 0 85.63 0Q85.44 0 85.44-0.24L85.44-0.24 85.49-34.59Q85.49-34.79 85.68-34.79L85.68-34.79 101.75-34.79Q101.94-34.79 101.94-34.55L101.94-34.55 101.94-28.96Q101.94-28.76 101.75-28.76L101.75-28.76 91.49-28.76 91.49-20.95 101.75-20.95Q101.94-20.95 101.94-20.75L101.94-20.75 101.99-15.09Q101.99-14.89 101.8-14.89L101.8-14.89 91.49-14.89 91.49-6.15 101.8-6.15Q101.99-6.15 101.99-5.91L101.99-5.91 101.99-0.2Q101.99 0 101.8 0ZM123.74 0L123.74 0 105.09 0Q104.85 0 104.85-0.24L104.85-0.24 104.89-5.69 117.15-29.1 105.55-29.1Q105.33-29.1 105.33-29.3L105.33-29.3 105.33-34.55Q105.33-34.79 105.55-34.79L105.55-34.79 123.64-34.79Q123.89-34.79 123.89-34.55L123.89-34.55 123.89-29.15 111.71-5.86 123.74-5.86Q123.94-5.86 123.94-5.59L123.94-5.59 123.99-0.24Q123.99 0 123.74 0Z" opacity="1" transform="matrix(1,0,0,1,0,0)" fill="#078dee" class="wordmark-text-0" data-fill-palette-color="primary" id="text-0"></path></svg></g></svg></g></svg></g></svg></g><g><svg viewBox="0 0 244.43135999999996 144.2145024" height="144.2145024" width="244.43135999999996"><g><svg xmlns="http://www.w3.org/2000/svg" xml:space="preserve" viewBox="0 0 100 59" x="0" y="0" height="144.2145024" width="244.43135999999996" class="icon-icon-0" data-fill-palette-color="accent" id="icon-0"><path d="M97.901 18l-0.003 0.001C96.896 7.895 88.372 0 78 0a19.9 19.9 0 0 0-10.498 3H32.498A19.9 19.9 0 0 0 22 0C11.628 0 3.104 7.895 2.102 18.001L2.099 18C1.751 22.175 0 50.691 0 51a8 8 0 0 0 8 8c18.377 0 25.943-15.686 28.666-24h26.668C66.057 43.314 73.623 59 92 59a8 8 0 0 0 8-8c0-0.309-1.751-28.825-2.099-33M22 32c-6.629 0-12-5.373-12-12S15.371 8 22 8s12 5.373 12 12-5.371 12-12 12m56 0c-6.629 0-12-5.373-12-12S71.371 8 78 8s12 5.373 12 12-5.371 12-12 12" fill="#078dee" data-fill-palette-color="accent"></path><path d="M31 17h-6v-6h-6v6h-6v6h6v6h6v-6h6zM78 16a3.999 3.999 0 1 1-8 0 3.999 3.999 0 1 1 8 0M86 24a3.999 3.999 0 1 1-8 0 3.999 3.999 0 1 1 8 0" fill="#078dee" data-fill-palette-color="accent"></path></svg></g></svg></g></svg></g></svg></g><defs></defs></svg><rect width="395.52" height="85.57157058216654" fill="none" stroke="none" visibility="hidden"></rect></g></svg></g></svg>